<?xml version="1.0" standalone="no"?>
<!DOCTYPE svg PUBLIC "-//W3C//DTD SVG 20010904//EN"
 "http://www.w3.org/TR/2001/REC-SVG-20010904/DTD/svg10.dtd">
<svg version="1.0" xmlns="http://www.w3.org/2000/svg"
 width="300.000000pt" height="300.000000pt" viewBox="0 0 300.000000 300.000000"
 preserveAspectRatio="xMidYMid meet">

<g transform="translate(0.000000,300.000000) scale(0.100000,-0.100000)"
fill="#000000" stroke="none">
<path d="M1165 2904 c-60 -14 -110 -26 -112 -27 -3 -4 83 -396 88 -401 2 -2
61 8 132 22 122 26 127 28 127 52 0 50 -9 53 -104 34 -47 -9 -88 -15 -91 -13
-2 3 -7 23 -11 46 l-6 42 59 11 c81 16 87 21 78 60 -8 36 5 34 -124 14 -38 -6
-38 -6 -44 32 -4 21 -5 39 -4 41 2 1 39 10 82 19 44 9 84 20 89 25 4 4 5 21 1
38 -8 38 -11 38 -160 5z"/>
<path d="M1567 2729 c-55 -105 -97 -192 -95 -193 1 -2 20 -6 41 -9 37 -6 38
-5 60 39 17 36 26 44 42 40 11 -2 41 -8 66 -11 l47 -7 6 -48 c7 -50 18 -60 74
-60 17 0 22 4 18 18 -2 9 -17 106 -32 214 l-28 196 -29 6 c-69 14 -65 18 -170
-185z m146 -2 l6 -59 -37 7 c-20 4 -39 9 -41 11 -3 2 8 31 24 64 32 68 39 64
48 -23z"/>
<path d="M2068 2709 c-29 -46 -79 -124 -110 -174 l-57 -90 27 -22 c15 -13 32
-23 37 -23 6 0 26 27 45 60 19 33 40 60 46 60 7 0 21 -8 32 -17 20 -17 20 -21
8 -98 -8 -44 -13 -80 -12 -81 0 0 16 -11 34 -23 18 -13 35 -21 37 -19 3 2 10
38 16 80 12 75 12 75 48 84 29 7 44 21 78 74 67 101 60 125 -54 196 -43 26
-88 54 -100 62 -21 13 -24 11 -75 -69z m134 -60 c26 -17 48 -35 48 -40 0 -14
-44 -79 -53 -79 -6 0 -69 38 -97 57 -5 4 42 93 49 93 2 0 26 -14 53 -31z"/>
<path d="M667 2684 c-65 -43 -97 -70 -93 -79 5 -14 202 -313 217 -329 7 -8
146 82 197 127 31 29 28 71 -9 129 -22 34 -40 51 -59 55 -21 4 -26 10 -23 24
6 22 -39 102 -69 124 -37 25 -58 18 -161 -51z m137 -49 c24 -37 20 -47 -30
-79 l-47 -30 -23 30 c-13 16 -24 32 -24 36 0 9 82 67 96 68 7 0 19 -11 28 -25z
m95 -134 c12 -16 21 -35 21 -43 0 -7 -22 -27 -49 -45 l-49 -32 -28 41 c-23 33
-26 41 -14 48 8 5 31 20 50 34 19 14 38 25 42 26 4 0 16 -13 27 -29z"/>
<path d="M1370 2354 c-94 -17 -175 -41 -240 -71 -71 -32 -74 -35 -55 -49 36
-27 62 -51 77 -73 l15 -21 64 24 c164 61 357 58 514 -8 l39 -17 31 36 c16 20
43 44 60 55 l29 19 -66 30 c-112 51 -202 72 -328 76 -63 2 -126 2 -140 -1z"/>
<path d="M417 2261 c-74 -100 -162 -287 -202 -428 -3 -8 -24 -6 -77 8 -90 23
-96 23 -100 2 -3 -15 11 -22 77 -39 92 -23 86 -7 65 -174 -18 -151 -4 -390 24
-390 34 1 37 15 25 116 -33 288 57 632 227 870 42 60 43 62 24 79 -18 16 -20
15 -63 -44z"/>
<path d="M2518 2304 c-14 -15 -11 -23 39 -98 166 -247 246 -567 214 -850 -12
-101 -9 -115 25 -116 28 0 42 239 24 390 -7 58 -14 116 -14 129 -1 25 3 27
127 55 18 4 27 13 27 26 0 24 -6 24 -98 1 -53 -14 -74 -16 -77 -8 -2 7 -15 47
-30 90 -30 93 -92 218 -151 308 -56 85 -66 93 -86 73z"/>
<path d="M947 2192 c-53 -58 -48 -171 9 -248 l23 -32 -38 -43 c-42 -49 -114
-159 -108 -165 2 -3 10 2 17 11 24 30 27 14 4 -32 -12 -27 -25 -78 -29 -117
l-6 -70 22 20 c22 19 22 19 14 -1 -4 -11 -9 -58 -11 -105 -4 -82 -3 -84 12
-55 l15 30 -5 -35 c-7 -54 -36 -117 -46 -100 -43 78 -58 304 -27 420 20 74 66
178 104 232 l25 37 -20 28 c-11 16 -26 50 -34 77 l-15 50 -52 -70 c-66 -86
-124 -206 -152 -310 -30 -113 -30 -307 0 -419 66 -246 231 -449 453 -558 227
-112 506 -115 733 -8 220 103 377 278 456 509 32 94 33 102 34 257 0 123 -4
175 -18 225 -25 93 -90 224 -150 303 l-51 68 -13 -38 c-7 -21 -22 -56 -34 -78
l-21 -41 31 -46 c82 -121 116 -251 108 -416 -4 -106 -30 -232 -46 -232 -10 0
-41 84 -41 110 1 24 1 24 15 -5 13 -29 13 -28 14 36 1 36 -6 88 -13 115 l-15
49 23 -28 23 -29 -4 54 c-6 79 -22 138 -45 172 -20 28 -20 29 -2 15 41 -34 48
-32 24 7 -33 56 -69 104 -102 140 l-29 31 32 52 c27 43 33 62 33 114 1 71 -24
124 -62 134 -31 7 -83 -18 -143 -68 -43 -36 -100 -55 -83 -28 5 8 -12 10 -59
7 -36 -2 -63 0 -61 4 8 13 -4 9 -77 -23 -78 -34 -99 -33 -179 7 -51 26 -64 29
-56 15 3 -4 -27 -6 -67 -4 -52 3 -68 2 -57 -6 12 -9 10 -11 -10 -11 -15 0 -46
17 -75 41 -86 71 -136 86 -168 51z m131 -86 c36 -25 42 -34 37 -54 -5 -21 -3
-23 12 -17 10 3 46 14 80 23 62 16 64 16 170 -11 l108 -28 90 26 c108 30 122
30 204 6 63 -20 63 -20 58 0 -4 16 8 30 55 65 34 25 66 43 71 41 6 -2 14 -15
18 -30 6 -23 5 -25 -11 -15 -25 16 -43 -1 -67 -58 -13 -31 -24 -44 -38 -44
-19 0 -19 -1 2 -18 33 -26 113 -162 113 -193 0 -23 -17 -87 -27 -98 -2 -3 -16
8 -33 24 l-29 28 -7 -27 c-9 -36 -26 -33 -65 11 l-32 37 23 6 c23 5 23 6 -10
34 -38 32 -64 31 -152 -8 -29 -12 -72 -28 -95 -36 l-43 -13 26 -24 c37 -34 65
-105 73 -186 6 -67 -1 -172 -12 -183 -2 -3 -26 3 -53 13 -43 16 -49 22 -52 50
-4 42 14 78 32 64 28 -23 36 22 9 51 -20 23 -80 24 -105 1 -20 -18 -24 -48 -8
-58 6 -3 10 -1 10 4 0 21 21 10 31 -16 18 -49 3 -80 -49 -97 -55 -19 -58 -16
-67 69 -12 111 35 268 88 297 17 9 7 15 -69 45 -137 53 -152 56 -185 42 -17
-6 -34 -20 -39 -29 -8 -15 -4 -19 34 -24 24 -4 64 -20 89 -36 25 -16 61 -32
80 -35 l35 -7 -44 -63 c-24 -35 -52 -80 -62 -102 l-17 -38 -3 78 c-2 42 -7 77
-12 77 -21 0 -80 -63 -91 -97 -13 -41 -7 -139 15 -243 8 -36 13 -66 11 -68 -1
-2 -31 8 -65 22 l-63 26 5 -49 c9 -94 36 -128 219 -287 93 -80 169 -148 169
-151 0 -10 -112 9 -173 29 -128 41 -252 125 -333 225 l-42 52 24 60 c30 73 46
155 38 187 -6 23 -8 24 -25 9 -17 -16 -17 -15 -5 32 19 70 -5 122 -34 76 -10
-15 -10 -14 -5 7 13 51 17 100 11 116 -5 14 -9 14 -23 3 -14 -12 -15 -11 -9
11 4 14 23 58 42 99 19 40 34 75 34 77 0 2 -8 1 -17 -3 -10 -3 -1 9 20 27 21
18 56 61 79 96 22 35 51 73 65 84 23 18 24 20 6 20 -14 0 -26 15 -42 51 -25
55 -43 68 -66 49 -18 -15 -21 1 -5 31 12 22 24 18 98 -35z m234 -332 c59 -17
69 -34 19 -34 -15 0 -42 11 -61 25 -40 29 -35 30 42 9z m375 -9 c-16 -14 -41
-25 -57 -25 -46 0 -45 18 2 30 24 6 48 13 53 15 27 10 27 2 2 -20z m68 -17
c-12 -40 -34 -67 -59 -74 -24 -6 -66 10 -66 24 0 7 109 71 123 72 5 0 5 -10 2
-22z m489 -355 c-5 -16 -4 -16 10 1 8 10 19 15 25 11 14 -8 14 -45 1 -45 -5 0
-7 8 -4 18 5 15 4 15 -10 -2 -8 -10 -22 -16 -31 -13 -15 7 -20 28 -8 40 12 13
22 7 17 -10z m-1504 0 c0 -3 -8 -15 -17 -25 -16 -18 -16 -18 0 -12 9 3 17 2
17 -4 0 -5 -13 -12 -30 -14 -33 -5 -39 8 -12 28 16 12 15 13 -8 15 -23 1 -23
2 5 9 42 11 45 11 45 3z m804 -42 c39 -10 64 -26 54 -36 -14 -14 -122 -23
-174 -15 -64 11 -73 15 -56 32 23 23 115 33 176 19z m729 -20 c4 -1 7 -10 7
-21 0 -16 -6 -19 -32 -17 -26 2 -34 8 -36 25 -3 20 0 22 25 18 15 -2 31 -5 36
-5z m-1515 -37 c2 -17 -3 -23 -25 -27 -34 -6 -43 -2 -43 23 0 35 63 39 68 4z
m1195 -69 c-27 -35 -51 -64 -55 -65 -4 0 -10 9 -13 20 -6 20 -9 19 -56 -15
-27 -19 -49 -33 -49 -30 0 3 19 31 41 61 38 50 44 54 73 49 24 -4 38 0 61 19
49 41 48 30 -2 -39z m253 40 c-3 -8 -1 -15 3 -15 5 0 12 6 14 13 3 7 6 5 6 -5
1 -21 17 -24 25 -5 3 6 4 3 3 -8 -2 -15 -9 -19 -27 -17 -14 1 -29 7 -34 12 -9
9 -2 40 10 40 3 0 4 -7 0 -15z m-1346 -36 c-7 -11 -14 -18 -17 -15 -3 3 0 12
7 21 18 21 23 19 10 -6z m1258 -19 c-2 -7 -10 1 -17 16 -12 27 -11 28 4 12 10
-9 16 -21 13 -28z m-1351 -6 c-18 -10 -26 -21 -23 -30 3 -8 1 -14 -4 -14 -5 0
-10 8 -12 18 -4 18 26 41 52 41 8 0 2 -7 -13 -15z m1456 -5 l21 -12 -24 -10
c-15 -5 -20 -11 -12 -14 6 -3 12 -8 12 -13 0 -5 -13 -3 -30 3 -36 14 -38 22
-7 31 18 5 20 8 7 16 -22 14 6 13 33 -1z m-1403 -49 c9 -16 6 -22 -15 -36 -20
-13 -28 -14 -40 -4 -21 18 -19 27 13 44 15 8 28 15 29 16 1 0 7 -9 13 -20z
m1363 -31 c18 -1 19 -2 4 -6 -11 -3 -16 -11 -13 -19 7 -17 4 -17 -29 -2 -27
12 -35 31 -9 21 13 -5 15 -1 10 18 -6 20 -5 21 4 7 6 -10 21 -19 33 -19z
m-1342 -36 c-6 -10 -11 -14 -11 -10 0 4 -9 3 -20 -3 -30 -16 -24 3 7 22 32 19
39 17 24 -9z m1304 -23 c16 -18 16 -20 2 -20 -11 0 -14 -5 -10 -17 5 -12 3
-14 -8 -8 -37 21 -49 38 -38 52 16 18 33 16 54 -7z m-1295 -11 c-24 -18 -40
-24 -40 -15 0 19 15 31 37 33 l27 1 -24 -19z m56 -23 c3 -8 -4 -25 -15 -38
-20 -21 -22 -21 -38 -5 -16 15 -15 18 2 37 21 23 43 26 51 6z m1187 -22 c31
-17 31 -17 9 -25 -14 -5 -21 -14 -17 -21 4 -7 -3 -2 -14 11 -19 21 -28 51 -16
51 4 0 20 -7 38 -16z m-1142 -31 c12 -15 12 -16 -5 -10 -14 6 -17 4 -12 -9 5
-12 1 -14 -16 -8 -20 6 -21 5 -9 -10 9 -11 10 -16 2 -16 -21 0 -24 30 -6 50
22 24 29 25 46 3z m1094 -23 c18 -19 18 -22 2 -37 -16 -16 -18 -16 -38 4 -23
22 -20 53 4 53 8 0 22 -9 32 -20z m-1045 -25 c11 -13 9 -19 -8 -35 -26 -24
-33 -25 -25 -3 5 12 2 15 -10 10 -22 -8 -22 1 0 25 20 22 27 22 43 3z m961
-47 l23 -31 -27 7 c-22 5 -25 3 -20 -11 9 -23 -14 -8 -28 19 -10 19 -9 20 17
14 23 -6 27 -5 17 5 -13 13 -17 29 -9 29 3 0 15 -14 27 -32z m-904 -19 c-5
-20 -5 -20 15 -2 21 18 21 18 16 -10 -5 -27 -5 -27 13 -11 23 21 25 7 2 -18
-20 -22 -33 -23 -33 -2 0 13 -3 14 -13 5 -20 -16 -27 -3 -15 30 11 33 23 40
15 8z m853 -53 c0 -6 -9 0 -20 14 -26 33 -25 52 0 21 11 -13 20 -28 20 -35z
m-771 -10 c-7 -14 -16 -26 -21 -26 -5 0 -1 14 7 31 20 37 31 33 14 -5z m676
23 c-4 -5 1 -20 12 -31 18 -20 18 -21 -4 -14 -18 6 -22 4 -17 -8 11 -28 -5
-17 -21 14 -9 17 -11 30 -6 30 5 0 12 -6 14 -12 3 -7 6 -3 6 10 1 12 6 22 12
22 5 0 7 -5 4 -11z m-639 -25 c-4 -14 -2 -32 4 -39 9 -11 7 -12 -9 -8 -12 3
-21 6 -21 8 0 1 5 16 11 34 13 37 24 41 15 5z m61 -23 c-3 -15 -1 -33 6 -40
13 -13 -2 -15 -21 -3 -9 6 -10 16 -1 40 14 40 23 42 16 3z m522 -24 c14 -3 14
-5 -2 -12 -22 -9 -24 -7 -31 30 -6 27 -5 28 5 8 6 -12 19 -24 28 -26z m-84 11
c-4 -17 -4 -19 3 -9 8 11 12 9 22 -9 11 -20 10 -22 -4 -17 -8 3 -18 2 -21 -3
-13 -21 -21 -8 -17 25 2 19 8 35 14 35 5 0 6 -10 3 -22z m-325 -3 c9 5 11 3 6
-6 -3 -8 -9 -22 -12 -31 -11 -31 -24 -20 -24 20 0 25 3 33 9 23 5 -8 14 -10
21 -6z m275 -53 c-4 -4 -13 1 -20 11 -13 18 -14 17 -17 -5 -3 -22 -4 -21 -21
9 -21 39 -22 55 -2 29 13 -17 15 -18 15 -3 0 22 9 22 26 0 12 -17 14 -16 15 7
2 19 3 17 6 -8 3 -19 1 -37 -2 -40z m-197 26 c-2 -25 -8 -34 -25 -36 -20 -3
-23 1 -23 32 0 32 3 36 26 36 23 0 25 -3 22 -32z m39 -4 c-3 -15 0 -24 9 -24
7 0 15 15 17 33 4 31 4 31 5 -5 2 -34 0 -38 -23 -38 -22 0 -25 4 -25 36 0 23
4 33 11 28 6 -3 9 -17 6 -30z"/>
<path d="M1377 1885 c93 -51 114 -54 163 -23 19 11 55 31 80 44 l45 23 -43 1
c-24 0 -60 -9 -82 -20 -22 -11 -49 -20 -60 -20 -11 0 -38 9 -60 20 -22 11 -59
20 -82 20 l-43 0 82 -45z"/>
<path d="M2220 1320 c0 -5 5 -10 10 -10 6 0 10 5 10 10 0 6 -4 10 -10 10 -5 0
-10 -4 -10 -10z"/>
<path d="M2250 1309 c0 -5 5 -7 10 -4 6 3 10 8 10 11 0 2 -4 4 -10 4 -5 0 -10
-5 -10 -11z"/>
<path d="M718 1303 c-10 -3 -18 -9 -18 -14 0 -12 37 -12 45 0 7 12 -5 19 -27
14z"/>
<path d="M780 1140 c-8 -5 -11 -12 -8 -16 10 -9 38 3 38 16 0 12 -10 13 -30 0z"/>
<path d="M2105 1060 c-3 -5 -1 -10 4 -10 6 0 11 5 11 10 0 6 -2 10 -4 10 -3 0
-8 -4 -11 -10z"/>
<path d="M870 1015 c-7 -9 -10 -18 -6 -22 3 -3 6 -1 6 6 0 7 4 10 9 6 5 -3 12
-1 15 4 11 17 -11 21 -24 6z"/>
<path d="M2006 951 c-7 -10 22 -37 30 -28 9 8 -3 37 -15 37 -5 0 -12 -4 -15
-9z"/>
<path d="M975 921 c-3 -5 -1 -12 5 -16 5 -3 10 1 10 9 0 18 -6 21 -15 7z"/>
<path d="M1396 743 c-9 -10 -7 -43 3 -43 11 0 21 39 11 45 -4 2 -10 2 -14 -2z"/>
<path d="M434 2028 c-72 -142 -114 -304 -121 -470 -5 -112 -5 -118 14 -118 17
0 20 12 31 128 14 151 48 284 102 400 23 48 38 92 36 99 -11 27 -37 11 -62
-39z"/>
<path d="M2504 2067 c-2 -7 13 -51 36 -99 54 -117 88 -249 102 -400 10 -113
14 -128 30 -128 16 0 18 9 18 83 0 151 -39 320 -110 474 -37 79 -63 103 -76
70z"/>
<path d="M507 1848 c-23 -61 -46 -155 -54 -215 -5 -48 -4 -53 14 -53 17 0 22
11 32 76 7 41 24 107 37 147 19 55 21 73 12 79 -21 13 -25 10 -41 -34z"/>
<path d="M2453 1882 c-9 -6 -6 -27 12 -85 14 -43 30 -109 36 -147 10 -59 15
-70 32 -70 18 0 19 5 14 53 -11 91 -60 257 -75 257 -4 0 -12 -4 -19 -8z"/>
<path d="M2498 1132 c-12 -16 -38 -60 -57 -99 -51 -106 -45 -115 131 -203 77
-39 146 -70 153 -70 40 0 65 26 104 106 23 46 41 92 41 102 0 28 -28 60 -69
82 l-38 19 -17 -37 c-17 -34 -17 -37 0 -49 10 -7 21 -13 26 -13 4 0 8 -7 8
-15 0 -19 -36 -91 -49 -100 -10 -5 -231 100 -231 110 0 3 12 28 26 56 25 51
30 53 75 35 11 -5 20 4 32 30 10 20 17 38 15 39 -2 1 -17 10 -35 19 -49 25
-87 21 -115 -12z"/>
<path d="M305 973 c-93 -57 -169 -108 -167 -114 2 -8 119 -206 129 -218 2 -3
19 3 39 12 l35 17 -22 38 c-13 20 -35 57 -51 82 l-27 45 37 22 c20 13 39 23
43 23 3 0 21 -27 40 -60 18 -33 39 -60 44 -60 6 0 22 8 37 18 25 16 26 20 14
38 -7 10 -25 40 -40 65 l-27 47 37 21 c20 12 37 21 38 19 1 -2 24 -38 50 -80
l47 -78 30 15 c16 9 29 20 29 26 0 15 -130 229 -138 228 -4 -1 -83 -48 -177
-106z"/>
<path d="M2303 827 c-11 -12 -23 -27 -26 -33 -4 -7 59 -69 148 -148 l155 -137
25 28 c13 15 25 31 25 34 0 4 -69 67 -154 142 l-154 136 -19 -22z"/>
<path d="M551 634 c-73 -85 -131 -158 -129 -163 5 -14 176 -161 187 -161 5 0
19 13 31 29 17 24 18 31 7 38 -8 4 -38 29 -67 55 l-53 47 98 113 c54 62 104
120 111 128 11 13 8 20 -19 42 l-33 26 -133 -154z"/>
<path d="M2057 615 l-97 -65 14 -28 c8 -15 59 -93 113 -174 l99 -147 32 19
c18 11 32 23 32 27 0 5 -18 35 -40 68 l-39 59 29 19 29 18 69 -46 70 -47 38
25 37 26 -72 46 c-64 42 -70 48 -60 66 15 29 4 62 -41 129 -62 92 -82 92 -213
5z m150 -64 c13 -19 20 -37 17 -42 -3 -5 -25 -23 -50 -40 -50 -34 -48 -35 -88
32 -16 27 -15 27 32 58 26 17 52 29 57 28 6 -2 20 -18 32 -36z"/>
<path d="M899 478 c-23 -57 -59 -143 -80 -191 l-38 -88 37 -16 c20 -8 73 -30
116 -49 44 -19 85 -34 91 -34 11 0 35 41 35 59 0 5 -26 19 -57 31 -116 46
-114 44 -96 90 9 22 20 40 25 40 5 0 36 -12 70 -26 64 -27 67 -26 86 19 10 24
9 29 -6 34 -40 15 -122 52 -122 56 0 3 7 21 15 40 l15 36 81 -34 c44 -19 84
-35 89 -35 13 0 34 60 24 69 -9 8 -227 101 -237 101 -3 0 -24 -46 -48 -102z"/>
<path d="M1746 483 l-138 -36 5 -35 c4 -19 8 -36 10 -38 1 -2 26 3 54 10 l51
14 12 -47 c6 -25 25 -99 42 -164 l31 -118 31 7 c17 3 35 9 39 14 6 5 -40 214
-69 311 -4 13 7 20 46 29 52 12 56 20 44 68 -4 12 -9 22 -13 21 -3 0 -68 -17
-145 -36z"/>
<path d="M1286 438 c-28 -24 -29 -27 -39 -174 -6 -83 -7 -161 -4 -175 10 -37
38 -48 144 -55 94 -6 99 -5 119 17 12 13 25 45 28 70 l7 47 -36 6 c-45 9 -55
2 -55 -35 0 -28 -1 -29 -52 -29 -87 0 -85 -6 -62 218 l5 52 37 -1 c70 -2 87
-12 84 -47 -3 -32 -3 -32 42 -32 l46 0 0 50 c0 60 -31 100 -77 100 -15 0 -57
3 -93 6 -60 6 -68 4 -94 -18z"/>
</g>
</svg>
